#tb 0: 1001/24000
#media_type 0: video
#codec_id 0: rawvideo
#dimensions 0: 320x180
#sar 0: 1/1
0,          0,          0,        1,   230400, 0xa4f85758
0,          1,          1,        1,   230400, 0xbe83505c
0,          2,          2,        1,   230400, 0x0a09584e
0,          3,          3,        1,   230400, 0xd2065629
0,          4,          4,        1,   230400, 0x11eb5319
0,          5,          5,        1,   230400, 0x61024f4c
0,          6,          6,        1,   230400, 0xd5384faa
0,          7,          7,        1,   230400, 0xdeae0343
0,          8,          8,        1,   230400, 0xcb640541
0,          9,          9,        1,   230400, 0xea2602c3
0,         10,         10,        1,   230400, 0xa7974293
0,         11,         11,        1,   230400, 0x67cd4287
0,         12,         12,        1,   230400, 0x83fa437a
0,         13,         13,        1,   230400, 0x852b42bf
0,         14,         14,        1,   230400, 0x6d2d434c
0,         15,         15,        1,   230400, 0x20c44629
0,         16,         16,        1,   230400, 0xf2a35f57
0,         17,         17,        1,   230400, 0x232959ec
0,         18,         18,        1,   230400, 0x1f8e5c48
0,         19,         19,        1,   230400, 0x88dc69bd
0,         20,         20,        1,   230400, 0x4b6866f3
0,         21,         21,        1,   230400, 0xe8f966dc
0,         22,         22,        1,   230400, 0xe0877466
0,         23,         23,        1,   230400, 0x8799748c
0,         24,         24,        1,   230400, 0xcab871bc
0,         25,         25,        1,   230400, 0x2e0372b4
0,         26,         26,        1,   230400, 0x15fb77d5
0,         27,         27,        1,   230400, 0xbadf75fc
0,         28,         28,        1,   230400, 0xa4977626
0,         29,         29,        1,   230400, 0x5b987943
0,         30,         30,        1,   230400, 0x9ed57c09
0,         31,         31,        1,   230400, 0x565d5105
0,         32,         32,        1,   230400, 0x901b5a07
0,         33,         33,        1,   230400, 0x8dc4e9a8
0,         34,         34,        1,   230400, 0x0b9cee1c
0,         35,         35,        1,   230400, 0x2bcdbe37
0,         36,         36,        1,   230400, 0xf3e2bf71
0,         37,         37,        1,   230400, 0xb718da67
0,         38,         38,        1,   230400, 0x8f59da64
0,         39,         39,        1,   230400, 0x8812f9aa
0,         40,         40,        1,   230400, 0xe0dae6a3
0,         41,         41,        1,   230400, 0xd2c7e5b7
0,         42,         42,        1,   230400, 0xea2ae5d2
0,         43,         43,        1,   230400, 0x2d66ca25
0,         44,         44,        1,   230400, 0xf0d3cac6
0,         45,         45,        1,   230400, 0xb9acccac
0,         46,         46,        1,   230400, 0x8523ca4a
0,         47,         47,        1,   230400, 0x92b9c9ef
0,         48,         48,        1,   230400, 0x0a88946e
0,         49,         49,        1,   230400, 0xe33699b8
0,         50,         50,        1,   230400, 0x5e7b9917
0,         51,         51,        1,   230400, 0xdac99998
0,         52,         52,        1,   230400, 0xb5c995fc
0,         53,         53,        1,   230400, 0x908b9f50
0,         54,         54,        1,   230400, 0x60d59ced
0,         55,         55,        1,   230400, 0x212e9f55
0,         56,         56,        1,   230400, 0x95e69b2a
0,         57,         57,        1,   230400, 0x6c38a34a
0,         58,         58,        1,   230400, 0xeb32a103
0,         59,         59,        1,   230400, 0x0131a1b7
0,         60,         60,        1,   230400, 0xd59b9c4e
0,         61,         61,        1,   230400, 0x2fc0a13f
0,         62,         62,        1,   230400, 0x7a40adf9
0,         63,         63,        1,   230400, 0x5cdbab2f
0,         64,         64,        1,   230400, 0xcdc0ada8
0,         65,         65,        1,   230400, 0x2f5faf32
0,         66,         66,        1,   230400, 0xd463b224
0,         67,         67,        1,   230400, 0xe337a2d5
0,         68,         68,        1,   230400, 0xe775a0c1
0,         69,         69,        1,   230400, 0x726aab49
0,         70,         70,        1,   230400, 0x74dda81e
